<?xml version="1.0" encoding="UTF-8" standalone="no"?>
<!DOCTYPE svg PUBLIC "-//W3C//DTD SVG 1.1//EN" "http://www.w3.org/Graphics/SVG/1.1/DTD/svg11.dtd">
<svg width="100%" height="100%" viewBox="0 0 512 512" version="1.1" xmlns="http://www.w3.org/2000/svg" xmlns:xlink="http://www.w3.org/1999/xlink" xml:space="preserve" xmlns:serif="http://www.serif.com/" style="fill-rule:evenodd;clip-rule:evenodd;stroke-linejoin:round;stroke-miterlimit:2;">
    <g transform="matrix(0.916834,0,0,0.93573,21.6222,10.5394)">
        <g id="bg">
            <path d="M498.749,138.225C498.749,72.492 444.282,19.125 377.193,19.125L134.083,19.125C66.995,19.125 12.528,72.492 12.528,138.225L12.528,386.245C12.528,451.978 66.995,505.345 134.083,505.345L377.193,505.345C444.282,505.345 498.749,451.978 498.749,386.245L498.749,138.225Z" style="fill:white;"/>
        </g>
    </g>
    <g id="sound" transform="matrix(0.959712,0,0,0.955642,43.1375,-2.07299)">
        <g transform="matrix(0.508962,0,0,0.508962,180.655,214.316)">
            <g id="sound1" serif:id="sound">
                <g transform="matrix(1,0,0,1,-256,-256)">
                    <g>
                        <g transform="matrix(1,0,0,1,0,-60)">
                            <path d="M218.5,572L158.5,572C150.216,572 143.5,565.284 143.5,557L143.5,435C143.5,426.716 150.216,420 158.5,420L218.5,420C226.784,420 233.5,426.716 233.5,435L233.5,557C233.5,565.284 226.784,572 218.5,572Z" style="fill:rgb(136,64,200);fill-rule:nonzero;"/>
                        </g>
                        <path d="M353.5,512L293.5,512C285.216,512 278.5,505.284 278.5,497L278.5,195C278.5,186.716 285.216,180 293.5,180L353.5,180C361.784,180 368.5,186.716 368.5,195L368.5,497C368.5,505.284 361.784,512 353.5,512Z" style="fill:rgb(136,64,200);fill-rule:nonzero;"/>
                        <path d="M353.5,90L293.5,90C285.216,90 278.5,83.284 278.5,75C278.5,66.716 285.216,60 293.5,60L353.5,60C361.784,60 368.5,66.716 368.5,75C368.5,83.284 361.784,90 353.5,90Z" style="fill:rgb(161,69,241);fill-rule:nonzero;"/>
                        <path d="M353.5,30L293.5,30C285.216,30 278.5,23.284 278.5,15C278.5,6.716 285.216,0 293.5,0L353.5,0C361.784,0 368.5,6.716 368.5,15C368.5,23.284 361.784,30 353.5,30Z" style="fill:rgb(173,101,235);fill-rule:nonzero;"/>
                        <g transform="matrix(1,0,0,1,0,-60)">
                            <path d="M218.5,330L158.5,330C150.216,330 143.5,323.284 143.5,315C143.5,306.716 150.216,300 158.5,300L218.5,300C226.784,300 233.5,306.716 233.5,315C233.5,323.284 226.784,330 218.5,330Z" style="fill:rgb(161,69,241);fill-rule:nonzero;"/>
                        </g>
                        <g transform="matrix(1,0,0,1,0,-50)">
                            <path d="M76,270L16,270C7.716,270 1,263.284 1,255C1,246.716 7.716,240 16,240L76,240C84.284,240 91,246.716 91,255C91,263.284 84.284,270 76,270Z" style="fill:rgb(144,38,237);fill-rule:nonzero;"/>
                        </g>
                        <g transform="matrix(1,0,0,1,0,-60)">
                            <path d="M218.5,390L158.5,390C150.216,390 143.5,383.284 143.5,375C143.5,366.716 150.216,360 158.5,360L218.5,360C226.784,360 233.5,366.716 233.5,375C233.5,383.284 226.784,390 218.5,390Z" style="fill:rgb(144,38,237);fill-rule:nonzero;"/>
                        </g>
                        <g transform="matrix(1,0,0,1,0,-60)">
                            <path d="M218.5,270L158.5,270C150.216,270 143.5,263.284 143.5,255C143.5,246.716 150.216,240 158.5,240L218.5,240C226.784,240 233.5,246.716 233.5,255C233.5,263.284 226.784,270 218.5,270Z" style="fill:rgb(173,101,235);fill-rule:nonzero;"/>
                        </g>
                        <g transform="matrix(1,0,0,1,0,-60)">
                            <path d="M218.5,210L158.5,210C150.216,210 143.5,203.284 143.5,195C143.5,186.716 150.216,180 158.5,180L218.5,180C226.784,180 233.5,186.716 233.5,195C233.5,203.284 226.784,210 218.5,210Z" style="fill:rgb(173,101,235);fill-rule:nonzero;"/>
                        </g>
                        <g transform="matrix(1,0,0,1,0,-50)">
                            <path d="M76,210L16,210C7.716,210 1,203.284 1,195C1,186.716 7.716,180 16,180L76,180C84.284,180 91,186.716 91,195C91,203.284 84.284,210 76,210Z" style="fill:rgb(161,69,241);fill-rule:nonzero;"/>
                        </g>
                        <g transform="matrix(1,0,0,1,0,-50)">
                            <path d="M76,150L16,150C7.716,150 1,143.284 1,135C1,126.716 7.716,120 16,120L76,120C84.284,120 91,126.716 91,135C91,143.284 84.284,150 76,150Z" style="fill:rgb(173,101,235);fill-rule:nonzero;"/>
                        </g>
                        <path d="M496,210L436,210C427.716,210 421,203.284 421,195C421,186.716 427.716,180 436,180L496,180C504.284,180 511,186.716 511,195C511,203.284 504.284,210 496,210Z" style="fill:rgb(144,38,237);fill-rule:nonzero;"/>
                        <path d="M496,150L436,150C427.716,150 421,143.284 421,135C421,126.716 427.716,120 436,120L496,120C504.284,120 511,126.716 511,135C511,143.284 504.284,150 496,150Z" style="fill:rgb(161,69,241);fill-rule:nonzero;"/>
                        <path d="M353.5,150L293.5,150C285.216,150 278.5,143.284 278.5,135C278.5,126.716 285.216,120 293.5,120L353.5,120C361.784,120 368.5,126.716 368.5,135C368.5,143.284 361.784,150 353.5,150Z" style="fill:rgb(144,38,237);fill-rule:nonzero;"/>
                        <g transform="matrix(1,0,0,1,0,-50)">
                            <path d="M76,562L16,562C7.716,562 1,555.284 1,547L1,315C1,306.716 7.716,300 16,300L76,300C84.284,300 91,306.716 91,315L91,547C91,555.284 84.284,562 76,562Z" style="fill:rgb(136,64,200);fill-rule:nonzero;"/>
                        </g>
                        <path d="M496,512L436,512C427.716,512 421,505.284 421,497L421,255C421,246.716 427.716,240 436,240L496,240C504.284,240 511,246.716 511,255L511,497C511,505.284 504.284,512 496,512Z" style="fill:rgb(136,64,200);fill-rule:nonzero;"/>
                    </g>
                </g>
            </g>
        </g>
    </g>
    <g transform="matrix(0.725146,0,0,0.725146,263.13,275.601)">
        <g transform="matrix(1,0,0,1,-256.5,-205)">
            <clipPath id="_clip1">
                <rect x="0" y="0" width="513" height="410"/>
            </clipPath>
            <g clip-path="url(#_clip1)">
                <g transform="matrix(-1,0,0,1,512,-51.1921)">
                    <g>
                        <path d="M269.7,338.53C271.971,334.892 270.865,330.104 267.227,327.833C263.589,325.56 258.801,326.67 256.531,330.306L227.944,376.085L208.705,406.743C208.69,406.767 208.675,406.791 208.66,406.815L200.005,420.607L181.618,420.607C177.331,420.607 173.855,424.083 173.855,428.37C173.855,432.657 177.331,436.133 181.618,436.133L204.299,436.133C206.97,436.133 209.454,434.759 210.874,432.496L215.67,424.853L221.339,432.857C222.794,434.912 225.156,436.133 227.673,436.133L244.727,436.133C249.014,436.133 252.49,432.657 252.49,428.37C252.49,424.083 249.014,420.607 244.727,420.607L231.688,420.607L224.608,410.611L241.104,384.323L269.7,338.53Z" style="fill:rgb(128,128,128);fill-rule:nonzero;"/>
                        <path d="M316.937,311.276C313.241,309.108 308.484,310.348 306.313,314.045L275.165,367.149L226.464,445.283L208.093,445.283C203.806,445.283 200.33,448.759 200.33,453.046C200.33,457.333 203.806,460.809 208.093,460.809L230.773,460.809C233.453,460.809 235.944,459.427 237.362,457.152L242.128,449.505L247.815,457.533C249.27,459.588 251.632,460.809 254.149,460.809L271.203,460.809C275.49,460.809 278.966,457.333 278.966,453.046C278.966,448.759 275.49,445.283 271.203,445.283L258.164,445.283L251.035,435.217L288.396,375.273C288.434,375.214 288.469,375.154 288.504,375.094L319.706,321.899C321.874,318.202 320.636,313.445 316.937,311.276Z" style="fill:rgb(112,112,112);fill-rule:nonzero;"/>
                        <path d="M335.754,342.739L460.316,443.116C466.139,447.809 474.65,446.964 479.438,441.218C483.685,436.123 483.67,428.717 479.405,423.638L452.772,391.92L318.679,264.934L284.149,288.076L335.754,342.739Z" style="fill:rgb(233,94,94);fill-rule:nonzero;"/>
                        <path d="M345.571,335.426L501.176,417.429C503.443,418.624 506.167,418.558 508.373,417.254C513.014,414.512 513.246,407.881 508.808,404.821L375.419,312.869L314.143,275.148L286.427,303.181L345.571,335.426Z" style="fill:rgb(203,85,85);fill-rule:nonzero;"/>
                        <path d="M42.847,174.448L2.462,164.852C0.245,164.326 -0.726,161.716 0.606,159.868L2.443,157.317C12.878,142.832 28.284,132.7 45.719,128.857L95.147,119.093L99.761,184.005L42.847,174.448Z" style="fill:rgb(228,127,105);fill-rule:nonzero;"/>
                        <g>
                            <path d="M228.334,254.832L157.346,140.976L138.27,122.665C142.224,118.256 145.619,113.412 148.403,108.237C151.198,103.061 153.382,97.565 154.893,91.841L159.023,76.274C159.261,75.373 158.702,74.462 157.802,74.266L143.217,71.098L151.695,53.523C152.274,52.322 151.239,50.966 149.925,51.225L141.613,52.819C111.317,58.667 84.364,75.787 66.198,100.732L55.946,114.808L55.951,114.809L69.211,178.879L49.368,207.675L49.366,207.675L57.297,248.094C73.227,329.243 146.913,385.965 229.428,380.603C249.539,379.299 269.236,375.065 287.919,368.11C306.612,361.164 324.291,351.507 340.366,339.356L389.428,302.28L228.334,254.832Z" style="fill:rgb(255,116,116);fill-rule:nonzero;"/>
                            <path d="M96.999,248.093L85.491,199.837C78.749,171.565 82.894,141.79 97.101,116.434L105.9,100.731C116.563,86.09 130.254,74.149 145.87,65.596L151.695,53.522C152.274,52.321 151.239,50.965 149.925,51.224L141.613,52.818C111.317,58.666 84.364,75.786 66.198,100.731L55.938,114.812L72.163,155.868L49.368,207.674L49.366,207.675L57.297,248.093C73.227,329.242 146.913,385.964 229.428,380.602C232.538,380.4 235.654,380.127 238.741,379.785C169.128,371.422 110.939,319.108 96.999,248.093Z" style="fill:rgb(232,103,103);fill-rule:nonzero;"/>
                            <g>
                                <path d="M108.873,151.32C108.873,157.737 107.196,163.906 104.132,169.309C101.079,174.702 96.639,179.329 91.142,182.62L49.367,207.689L42.847,174.448L45.434,170.551C52.483,159.911 53.58,146.403 48.363,134.769L45.714,128.869L55.94,114.824L72.366,114.824C92.529,114.824 108.873,131.167 108.873,151.32Z" style="fill:rgb(94,94,94);fill-rule:nonzero;"/>
                            </g>
                            <path d="M94.161,122.025C88.077,117.488 80.541,114.808 72.367,114.808L55.941,114.808L45.715,128.854L48.364,134.754C53.581,146.388 52.484,159.895 45.435,170.536L42.847,174.448L49.368,207.674L83.227,187.356C80.436,165.029 84.21,142.306 94.161,122.025Z" style="fill:rgb(70,69,70);fill-rule:nonzero;"/>
                            <g>
                                <path d="M76.973,155.868C72.686,155.868 69.211,152.392 69.211,148.105L69.211,143.164C69.211,138.876 72.686,135.401 76.973,135.401C81.261,135.401 84.736,138.876 84.736,143.164L84.736,148.105C84.736,152.392 81.261,155.868 76.973,155.868Z" style="fill-rule:nonzero;"/>
                            </g>
                            <g id="XMLID_438_">
                                <g>
                                    <g id="XMLID_440_">
                                        <g>
                                            <path d="M210.887,194.307L194.412,174.448C181.743,163.673 169.374,152.515 157.346,140.975L138.187,165.298C126.677,179.914 122.547,199.01 126.988,217.072C141.002,274.073 192.124,313.499 249.912,313.499C250.968,313.499 252.013,313.488 253.069,313.447L263.115,277.642L210.887,194.307Z" style="fill:rgb(190,82,82);fill-rule:nonzero;"/>
                                            <path d="M323.303,268.589L303.663,253.061L303.673,253.051C283.261,240.755 263.399,227.578 244.136,213.563L232.194,209.051L268.643,293.043L298.228,309.907L341.266,306.305L344.847,295.969L323.303,268.589Z" style="fill:rgb(165,73,73);fill-rule:nonzero;"/>
                                            <path d="M244.136,213.574L298.228,309.907L260.552,313.054C258.047,313.261 255.553,313.395 253.069,313.447L194.412,174.448C210.497,188.122 227.078,201.174 244.136,213.563L244.136,213.574Z" style="fill:rgb(179,79,79);fill-rule:nonzero;"/>
                                        </g>
                                    </g>
                                </g>
                            </g>
                        </g>
                        <path d="M390.09,298.511C391.943,299.36 391.457,302.113 389.428,302.279L341.266,306.305L303.663,253.061L303.673,253.051C330.295,269.126 357.838,283.699 386.167,296.71L390.09,298.511Z" style="fill:rgb(147,67,67);fill-rule:nonzero;"/>
                    </g>
                </g>
            </g>
        </g>
    </g>
</svg>
