<?xml version="1.0" encoding="UTF-8" standalone="no"?>
<!DOCTYPE svg PUBLIC "-//W3C//DTD SVG 1.1//EN" "http://www.w3.org/Graphics/SVG/1.1/DTD/svg11.dtd">
<svg width="100%" height="100%" viewBox="0 0 773 190" version="1.1" xmlns="http://www.w3.org/2000/svg" xmlns:xlink="http://www.w3.org/1999/xlink" xml:space="preserve" xmlns:serif="http://www.serif.com/" style="fill-rule:evenodd;clip-rule:evenodd;stroke-linejoin:round;stroke-miterlimit:2;">
    <g id="Artboard1" transform="matrix(1.50962,0,0,0.370006,0,0)">
        <rect x="0" y="0" width="512" height="512" style="fill:none;"/>
        <g id="text-light" serif:id="text light" transform="matrix(1.68951,0,0,6.89318,-315.429,-1236.68)">
            <g transform="matrix(50,0,0,50,277.106,248.768)">
                <path d="M0.558,-0.223L0.42,-0.223C0.419,-0.201 0.416,-0.183 0.41,-0.167C0.404,-0.152 0.396,-0.14 0.386,-0.13C0.376,-0.12 0.363,-0.113 0.349,-0.108C0.335,-0.104 0.319,-0.102 0.301,-0.102C0.287,-0.102 0.275,-0.103 0.264,-0.106C0.253,-0.109 0.244,-0.114 0.235,-0.121C0.227,-0.126 0.219,-0.134 0.213,-0.143C0.207,-0.151 0.201,-0.161 0.197,-0.173C0.19,-0.189 0.185,-0.209 0.182,-0.231C0.179,-0.253 0.178,-0.279 0.178,-0.307L0.178,-0.404C0.178,-0.425 0.179,-0.444 0.181,-0.462C0.183,-0.48 0.186,-0.497 0.19,-0.512C0.195,-0.531 0.203,-0.548 0.212,-0.562C0.221,-0.577 0.233,-0.588 0.246,-0.596C0.254,-0.6 0.262,-0.604 0.272,-0.606C0.281,-0.608 0.291,-0.609 0.302,-0.609C0.322,-0.609 0.339,-0.607 0.354,-0.601C0.368,-0.596 0.38,-0.588 0.39,-0.578C0.4,-0.567 0.407,-0.554 0.412,-0.538C0.417,-0.522 0.42,-0.503 0.421,-0.482L0.558,-0.482C0.555,-0.519 0.547,-0.552 0.535,-0.582C0.522,-0.612 0.505,-0.637 0.484,-0.657C0.462,-0.678 0.436,-0.694 0.406,-0.705C0.376,-0.716 0.341,-0.721 0.302,-0.721C0.275,-0.721 0.251,-0.718 0.228,-0.711C0.205,-0.705 0.184,-0.695 0.165,-0.683C0.143,-0.668 0.124,-0.65 0.107,-0.629C0.09,-0.608 0.076,-0.584 0.066,-0.557C0.057,-0.535 0.05,-0.51 0.045,-0.485C0.041,-0.459 0.039,-0.431 0.039,-0.403L0.039,-0.307C0.039,-0.277 0.041,-0.248 0.046,-0.22C0.051,-0.193 0.058,-0.168 0.068,-0.145C0.078,-0.122 0.09,-0.101 0.104,-0.083C0.118,-0.064 0.134,-0.048 0.152,-0.034C0.172,-0.02 0.195,-0.009 0.219,-0.001C0.244,0.006 0.271,0.01 0.301,0.01C0.338,0.01 0.372,0.005 0.402,-0.006C0.433,-0.017 0.459,-0.033 0.481,-0.053C0.504,-0.073 0.521,-0.097 0.534,-0.126C0.548,-0.155 0.555,-0.187 0.558,-0.223Z" style="fill:rgb(219,219,219);fill-rule:nonzero;"/>
            </g>
            <g transform="matrix(50,0,0,50,303.861,248.768)">
                <path d="M0.399,0L0.537,0L0.537,-0.008C0.53,-0.022 0.525,-0.038 0.521,-0.056C0.517,-0.075 0.516,-0.098 0.516,-0.126L0.516,-0.353C0.516,-0.384 0.51,-0.411 0.499,-0.434C0.487,-0.457 0.471,-0.476 0.451,-0.492C0.431,-0.507 0.407,-0.519 0.38,-0.526C0.352,-0.534 0.322,-0.538 0.291,-0.538C0.255,-0.538 0.224,-0.534 0.196,-0.525C0.169,-0.516 0.145,-0.504 0.126,-0.488C0.107,-0.473 0.093,-0.455 0.083,-0.435C0.073,-0.415 0.068,-0.394 0.068,-0.371L0.204,-0.371C0.204,-0.381 0.205,-0.389 0.208,-0.397C0.211,-0.405 0.215,-0.411 0.221,-0.417C0.227,-0.423 0.236,-0.428 0.246,-0.431C0.257,-0.435 0.269,-0.437 0.283,-0.437C0.299,-0.437 0.314,-0.434 0.326,-0.43C0.338,-0.426 0.348,-0.421 0.356,-0.413C0.364,-0.406 0.37,-0.397 0.374,-0.387C0.378,-0.378 0.38,-0.366 0.38,-0.354L0.38,-0.323L0.304,-0.323C0.265,-0.323 0.231,-0.319 0.2,-0.312C0.17,-0.305 0.145,-0.295 0.125,-0.282C0.102,-0.267 0.085,-0.248 0.073,-0.226C0.062,-0.203 0.056,-0.177 0.056,-0.148C0.056,-0.125 0.061,-0.104 0.07,-0.085C0.079,-0.065 0.092,-0.049 0.108,-0.035C0.124,-0.021 0.144,-0.01 0.166,-0.002C0.189,0.006 0.214,0.01 0.241,0.01C0.257,0.01 0.273,0.008 0.287,0.005C0.301,0.002 0.315,-0.002 0.327,-0.008C0.338,-0.013 0.349,-0.019 0.359,-0.026C0.369,-0.034 0.377,-0.041 0.385,-0.049C0.386,-0.04 0.388,-0.031 0.391,-0.022C0.393,-0.014 0.396,-0.007 0.399,0ZM0.27,-0.095C0.257,-0.095 0.246,-0.097 0.236,-0.1C0.226,-0.103 0.218,-0.107 0.212,-0.112C0.205,-0.118 0.2,-0.125 0.197,-0.133C0.194,-0.141 0.192,-0.149 0.192,-0.159C0.192,-0.171 0.194,-0.182 0.199,-0.192C0.203,-0.202 0.21,-0.211 0.22,-0.219C0.229,-0.226 0.241,-0.232 0.256,-0.236C0.271,-0.24 0.289,-0.242 0.311,-0.242L0.38,-0.242L0.38,-0.151C0.376,-0.144 0.371,-0.137 0.364,-0.131C0.357,-0.124 0.349,-0.118 0.339,-0.113C0.33,-0.108 0.319,-0.103 0.308,-0.1C0.296,-0.097 0.283,-0.095 0.27,-0.095Z" style="fill:rgb(219,219,219);fill-rule:nonzero;"/>
            </g>
            <g transform="matrix(50,0,0,50,327.216,248.768)">
                <path d="M0.448,-0.538C0.413,-0.538 0.38,-0.53 0.35,-0.512C0.32,-0.495 0.294,-0.472 0.273,-0.442L0.272,-0.454L0.267,-0.528L0.14,-0.528L0.14,0L0.276,0L0.276,-0.317C0.282,-0.332 0.29,-0.345 0.299,-0.356C0.309,-0.368 0.32,-0.377 0.333,-0.384C0.345,-0.39 0.357,-0.395 0.371,-0.398C0.385,-0.401 0.401,-0.402 0.419,-0.402C0.436,-0.402 0.454,-0.401 0.472,-0.399C0.491,-0.397 0.509,-0.394 0.527,-0.39L0.547,-0.525C0.537,-0.528 0.523,-0.531 0.505,-0.534C0.488,-0.537 0.469,-0.538 0.448,-0.538Z" style="fill:rgb(219,219,219);fill-rule:nonzero;"/>
            </g>
            <g transform="matrix(50,0,0,50,353.971,248.768)">
                <path d="M0.055,-0.268L0.055,-0.258C0.055,-0.219 0.059,-0.184 0.069,-0.151C0.078,-0.118 0.092,-0.09 0.11,-0.066C0.127,-0.043 0.149,-0.024 0.175,-0.01C0.2,0.003 0.229,0.01 0.261,0.01C0.291,0.01 0.317,0.004 0.339,-0.007C0.362,-0.019 0.381,-0.035 0.398,-0.055L0.405,0L0.527,0L0.527,-0.75L0.391,-0.75L0.391,-0.481C0.375,-0.499 0.356,-0.513 0.335,-0.523C0.314,-0.533 0.29,-0.538 0.262,-0.538C0.229,-0.538 0.2,-0.532 0.175,-0.519C0.149,-0.506 0.127,-0.487 0.109,-0.463C0.091,-0.44 0.078,-0.411 0.069,-0.378C0.059,-0.345 0.055,-0.308 0.055,-0.268ZM0.19,-0.258L0.19,-0.268C0.19,-0.29 0.192,-0.311 0.196,-0.33C0.2,-0.35 0.206,-0.367 0.215,-0.381C0.223,-0.396 0.234,-0.407 0.248,-0.415C0.261,-0.424 0.278,-0.428 0.297,-0.428C0.32,-0.428 0.339,-0.423 0.354,-0.413C0.37,-0.403 0.382,-0.389 0.391,-0.371L0.391,-0.157C0.382,-0.14 0.37,-0.126 0.354,-0.116C0.339,-0.106 0.319,-0.101 0.296,-0.101C0.277,-0.101 0.26,-0.105 0.247,-0.113C0.234,-0.121 0.223,-0.132 0.214,-0.146C0.206,-0.16 0.2,-0.177 0.196,-0.196C0.192,-0.215 0.19,-0.236 0.19,-0.258Z" style="fill:rgb(219,219,219);fill-rule:nonzero;"/>
            </g>
            <g transform="matrix(50,0,0,50,380.726,248.768)">
                <path d="M0.105,-0.528L0.105,-0.417L0.255,-0.417L0.255,-0.11L0.105,-0.11L0.105,0L0.536,0L0.536,-0.11L0.393,-0.11L0.393,-0.528L0.105,-0.528ZM0.246,-0.664C0.246,-0.653 0.247,-0.643 0.251,-0.635C0.255,-0.626 0.26,-0.618 0.267,-0.612C0.274,-0.605 0.282,-0.6 0.292,-0.597C0.301,-0.593 0.312,-0.591 0.324,-0.591C0.348,-0.591 0.367,-0.598 0.381,-0.612C0.395,-0.625 0.402,-0.642 0.402,-0.664C0.402,-0.685 0.395,-0.702 0.381,-0.716C0.367,-0.729 0.348,-0.736 0.324,-0.736C0.312,-0.736 0.301,-0.734 0.292,-0.73C0.282,-0.727 0.274,-0.722 0.267,-0.716C0.26,-0.709 0.255,-0.702 0.251,-0.693C0.247,-0.684 0.246,-0.674 0.246,-0.664Z" style="fill:rgb(219,219,219);fill-rule:nonzero;"/>
            </g>
            <g transform="matrix(50,0,0,50,407.481,248.768)">
                <path d="M0.069,0L0.205,0L0.205,-0.375C0.21,-0.383 0.215,-0.389 0.22,-0.395C0.226,-0.401 0.232,-0.406 0.239,-0.41C0.247,-0.416 0.257,-0.42 0.268,-0.423C0.279,-0.426 0.291,-0.428 0.304,-0.428C0.319,-0.428 0.333,-0.426 0.346,-0.423C0.358,-0.42 0.369,-0.415 0.377,-0.407C0.386,-0.399 0.393,-0.388 0.398,-0.375C0.402,-0.361 0.405,-0.344 0.405,-0.323L0.405,0L0.541,0L0.541,-0.325C0.541,-0.364 0.536,-0.396 0.527,-0.423C0.518,-0.45 0.506,-0.472 0.49,-0.489C0.473,-0.506 0.454,-0.519 0.432,-0.526C0.41,-0.534 0.386,-0.538 0.359,-0.538C0.338,-0.538 0.318,-0.535 0.3,-0.529C0.281,-0.523 0.264,-0.515 0.249,-0.504C0.239,-0.497 0.231,-0.49 0.223,-0.482C0.215,-0.474 0.207,-0.465 0.2,-0.455L0.192,-0.528L0.069,-0.528L0.069,0Z" style="fill:rgb(219,219,219);fill-rule:nonzero;"/>
            </g>
            <g transform="matrix(50,0,0,50,434.235,248.768)">
                <path d="M0.399,0L0.537,0L0.537,-0.008C0.53,-0.022 0.525,-0.038 0.521,-0.056C0.517,-0.075 0.516,-0.098 0.516,-0.126L0.516,-0.353C0.516,-0.384 0.51,-0.411 0.499,-0.434C0.487,-0.457 0.471,-0.476 0.451,-0.492C0.431,-0.507 0.407,-0.519 0.38,-0.526C0.352,-0.534 0.322,-0.538 0.291,-0.538C0.255,-0.538 0.224,-0.534 0.196,-0.525C0.169,-0.516 0.145,-0.504 0.126,-0.488C0.107,-0.473 0.093,-0.455 0.083,-0.435C0.073,-0.415 0.068,-0.394 0.068,-0.371L0.204,-0.371C0.204,-0.381 0.205,-0.389 0.208,-0.397C0.211,-0.405 0.215,-0.411 0.221,-0.417C0.227,-0.423 0.236,-0.428 0.246,-0.431C0.257,-0.435 0.269,-0.437 0.283,-0.437C0.299,-0.437 0.314,-0.434 0.326,-0.43C0.338,-0.426 0.348,-0.421 0.356,-0.413C0.364,-0.406 0.37,-0.397 0.374,-0.387C0.378,-0.378 0.38,-0.366 0.38,-0.354L0.38,-0.323L0.304,-0.323C0.265,-0.323 0.231,-0.319 0.2,-0.312C0.17,-0.305 0.145,-0.295 0.125,-0.282C0.102,-0.267 0.085,-0.248 0.073,-0.226C0.062,-0.203 0.056,-0.177 0.056,-0.148C0.056,-0.125 0.061,-0.104 0.07,-0.085C0.079,-0.065 0.092,-0.049 0.108,-0.035C0.124,-0.021 0.144,-0.01 0.166,-0.002C0.189,0.006 0.214,0.01 0.241,0.01C0.257,0.01 0.273,0.008 0.287,0.005C0.301,0.002 0.315,-0.002 0.327,-0.008C0.338,-0.013 0.349,-0.019 0.359,-0.026C0.369,-0.034 0.377,-0.041 0.385,-0.049C0.386,-0.04 0.388,-0.031 0.391,-0.022C0.393,-0.014 0.396,-0.007 0.399,0ZM0.27,-0.095C0.257,-0.095 0.246,-0.097 0.236,-0.1C0.226,-0.103 0.218,-0.107 0.212,-0.112C0.205,-0.118 0.2,-0.125 0.197,-0.133C0.194,-0.141 0.192,-0.149 0.192,-0.159C0.192,-0.171 0.194,-0.182 0.199,-0.192C0.203,-0.202 0.21,-0.211 0.22,-0.219C0.229,-0.226 0.241,-0.232 0.256,-0.236C0.271,-0.24 0.289,-0.242 0.311,-0.242L0.38,-0.242L0.38,-0.151C0.376,-0.144 0.371,-0.137 0.364,-0.131C0.357,-0.124 0.349,-0.118 0.339,-0.113C0.33,-0.108 0.319,-0.103 0.308,-0.1C0.296,-0.097 0.283,-0.095 0.27,-0.095Z" style="fill:rgb(219,219,219);fill-rule:nonzero;"/>
            </g>
            <g transform="matrix(50,0,0,50,460.99,248.768)">
                <path d="M0.097,-0.75L0.097,-0.639L0.255,-0.639L0.255,-0.11L0.097,-0.11L0.097,0L0.544,0L0.544,-0.11L0.393,-0.11L0.393,-0.75L0.097,-0.75Z" style="fill:rgb(219,219,219);fill-rule:nonzero;"/>
            </g>
        </g>
        <g transform="matrix(0.285217,0,0,1.16368,75.0302,248.449)">
            <g transform="matrix(1,0,0,1,-256.5,-205)">
                <clipPath id="_clip1">
                    <rect x="0" y="0" width="513" height="410"/>
                </clipPath>
                <g clip-path="url(#_clip1)">
                    <g transform="matrix(-1,0,0,1,512,-51.1921)">
                        <g>
                            <path d="M269.7,338.53C271.971,334.892 270.865,330.104 267.227,327.833C263.589,325.56 258.801,326.67 256.531,330.306L227.944,376.085L208.705,406.743C208.69,406.767 208.675,406.791 208.66,406.815L200.005,420.607L181.618,420.607C177.331,420.607 173.855,424.083 173.855,428.37C173.855,432.657 177.331,436.133 181.618,436.133L204.299,436.133C206.97,436.133 209.454,434.759 210.874,432.496L215.67,424.853L221.339,432.857C222.794,434.912 225.156,436.133 227.673,436.133L244.727,436.133C249.014,436.133 252.49,432.657 252.49,428.37C252.49,424.083 249.014,420.607 244.727,420.607L231.688,420.607L224.608,410.611L241.104,384.323L269.7,338.53Z" style="fill:rgb(128,128,128);fill-rule:nonzero;"/>
                            <path d="M316.937,311.276C313.241,309.108 308.484,310.348 306.313,314.045L275.165,367.149L226.464,445.283L208.093,445.283C203.806,445.283 200.33,448.759 200.33,453.046C200.33,457.333 203.806,460.809 208.093,460.809L230.773,460.809C233.453,460.809 235.944,459.427 237.362,457.152L242.128,449.505L247.815,457.533C249.27,459.588 251.632,460.809 254.149,460.809L271.203,460.809C275.49,460.809 278.966,457.333 278.966,453.046C278.966,448.759 275.49,445.283 271.203,445.283L258.164,445.283L251.035,435.217L288.396,375.273C288.434,375.214 288.469,375.154 288.504,375.094L319.706,321.899C321.874,318.202 320.636,313.445 316.937,311.276Z" style="fill:rgb(112,112,112);fill-rule:nonzero;"/>
                            <path d="M335.754,342.739L460.316,443.116C466.139,447.809 474.65,446.964 479.438,441.218C483.685,436.123 483.67,428.717 479.405,423.638L452.772,391.92L318.679,264.934L284.149,288.076L335.754,342.739Z" style="fill:rgb(233,94,94);fill-rule:nonzero;"/>
                            <path d="M345.571,335.426L501.176,417.429C503.443,418.624 506.167,418.558 508.373,417.254C513.014,414.512 513.246,407.881 508.808,404.821L375.419,312.869L314.143,275.148L286.427,303.181L345.571,335.426Z" style="fill:rgb(203,85,85);fill-rule:nonzero;"/>
                            <path d="M42.847,174.448L2.462,164.852C0.245,164.326 -0.726,161.716 0.606,159.868L2.443,157.317C12.878,142.832 28.284,132.7 45.719,128.857L95.147,119.093L99.761,184.005L42.847,174.448Z" style="fill:rgb(228,127,105);fill-rule:nonzero;"/>
                            <g>
                                <path d="M228.334,254.832L157.346,140.976L138.27,122.665C142.224,118.256 145.619,113.412 148.403,108.237C151.198,103.061 153.382,97.565 154.893,91.841L159.023,76.274C159.261,75.373 158.702,74.462 157.802,74.266L143.217,71.098L151.695,53.523C152.274,52.322 151.239,50.966 149.925,51.225L141.613,52.819C111.317,58.667 84.364,75.787 66.198,100.732L55.946,114.808L55.951,114.809L69.211,178.879L49.368,207.675L49.366,207.675L57.297,248.094C73.227,329.243 146.913,385.965 229.428,380.603C249.539,379.299 269.236,375.065 287.919,368.11C306.612,361.164 324.291,351.507 340.366,339.356L389.428,302.28L228.334,254.832Z" style="fill:rgb(255,116,116);fill-rule:nonzero;"/>
                                <path d="M96.999,248.093L85.491,199.837C78.749,171.565 82.894,141.79 97.101,116.434L105.9,100.731C116.563,86.09 130.254,74.149 145.87,65.596L151.695,53.522C152.274,52.321 151.239,50.965 149.925,51.224L141.613,52.818C111.317,58.666 84.364,75.786 66.198,100.731L55.938,114.812L72.163,155.868L49.368,207.674L49.366,207.675L57.297,248.093C73.227,329.242 146.913,385.964 229.428,380.602C232.538,380.4 235.654,380.127 238.741,379.785C169.128,371.422 110.939,319.108 96.999,248.093Z" style="fill:rgb(232,103,103);fill-rule:nonzero;"/>
                                <g>
                                    <path d="M108.873,151.32C108.873,157.737 107.196,163.906 104.132,169.309C101.079,174.702 96.639,179.329 91.142,182.62L49.367,207.689L42.847,174.448L45.434,170.551C52.483,159.911 53.58,146.403 48.363,134.769L45.714,128.869L55.94,114.824L72.366,114.824C92.529,114.824 108.873,131.167 108.873,151.32Z" style="fill:rgb(94,94,94);fill-rule:nonzero;"/>
                                </g>
                                <path d="M94.161,122.025C88.077,117.488 80.541,114.808 72.367,114.808L55.941,114.808L45.715,128.854L48.364,134.754C53.581,146.388 52.484,159.895 45.435,170.536L42.847,174.448L49.368,207.674L83.227,187.356C80.436,165.029 84.21,142.306 94.161,122.025Z" style="fill:rgb(70,69,70);fill-rule:nonzero;"/>
                                <g>
                                    <path d="M76.973,155.868C72.686,155.868 69.211,152.392 69.211,148.105L69.211,143.164C69.211,138.876 72.686,135.401 76.973,135.401C81.261,135.401 84.736,138.876 84.736,143.164L84.736,148.105C84.736,152.392 81.261,155.868 76.973,155.868Z" style="fill-rule:nonzero;"/>
                                </g>
                                <g id="XMLID_438_">
                                    <g>
                                        <g id="XMLID_440_">
                                            <g>
                                                <path d="M210.887,194.307L194.412,174.448C181.743,163.673 169.374,152.515 157.346,140.975L138.187,165.298C126.677,179.914 122.547,199.01 126.988,217.072C141.002,274.073 192.124,313.499 249.912,313.499C250.968,313.499 252.013,313.488 253.069,313.447L263.115,277.642L210.887,194.307Z" style="fill:rgb(190,82,82);fill-rule:nonzero;"/>
                                                <path d="M323.303,268.589L303.663,253.061L303.673,253.051C283.261,240.755 263.399,227.578 244.136,213.563L232.194,209.051L268.643,293.043L298.228,309.907L341.266,306.305L344.847,295.969L323.303,268.589Z" style="fill:rgb(165,73,73);fill-rule:nonzero;"/>
                                                <path d="M244.136,213.574L298.228,309.907L260.552,313.054C258.047,313.261 255.553,313.395 253.069,313.447L194.412,174.448C210.497,188.122 227.078,201.174 244.136,213.563L244.136,213.574Z" style="fill:rgb(179,79,79);fill-rule:nonzero;"/>
                                            </g>
                                        </g>
                                    </g>
                                </g>
                            </g>
                            <path d="M390.09,298.511C391.943,299.36 391.457,302.113 389.428,302.279L341.266,306.305L303.663,253.061L303.673,253.051C330.295,269.126 357.838,283.699 386.167,296.71L390.09,298.511Z" style="fill:rgb(147,67,67);fill-rule:nonzero;"/>
                        </g>
                    </g>
                </g>
            </g>
        </g>
    </g>
</svg>
